<svg version="1.1" id="Layer_1" xmlns="http://www.w3.org/2000/svg" xmlns:xlink="http://www.w3.org/1999/xlink" x="0px" y="0px"
	 width="100%" viewBox="0 0 2064 678" enable-background="new 0 0 2064 678" xml:space="preserve">
<path fill="#00000" opacity="0.000000" stroke="none"
	d="
M1454.000000,679.000000
	C969.377380,679.000000 485.254791,679.000000 1.066101,679.000000
	C1.066101,453.064667 1.066101,227.129288 1.066101,1.096955
	C689.000000,1.096955 1377.000000,1.096955 2064.971680,1.096955
	C2064.971680,227.078796 2064.971680,453.039398 2064.971680,679.000000
	C1861.462402,679.000000 1657.981201,679.000000 1454.000000,679.000000
M272.500000,565.002075
	C404.229492,565.002075 535.958984,565.002075 667.589233,565.002075
	C667.589233,553.193176 667.589233,542.256104 667.589233,530.830994
	C665.163635,530.830994 663.036255,530.831055 660.908875,530.831055
	C514.581543,530.831055 368.254150,530.865112 221.926849,530.790955
	C202.034302,530.780884 183.212234,525.994568 166.548569,514.950989
	C128.108612,489.475616 110.374855,453.245117 115.015350,407.550659
	C119.513992,363.253052 143.292999,332.008698 184.652039,314.850220
	C191.701843,311.925476 199.396591,310.555359 207.470932,308.275757
	C207.624390,332.245453 211.094940,354.296967 218.812927,375.633026
	C226.516846,396.930176 237.464447,416.273956 252.390991,433.799774
	C260.869629,426.017456 268.908875,418.638428 276.917206,411.287811
	C276.402832,410.442902 276.192230,409.990631 275.888550,409.613220
	C248.178848,375.178741 236.843597,335.902496 241.932175,292.104462
	C246.818390,250.048355 266.125275,215.599960 299.364624,189.494080
	C329.812988,165.580246 364.812927,155.722427 403.275482,160.270981
	C439.640564,164.571472 469.924072,181.162262 494.189026,208.579941
	C514.257690,231.256165 526.152710,257.779755 530.939636,287.596802
	C531.439636,290.711182 530.914490,292.581787 527.531311,294.018188
	C499.126617,306.077881 480.114716,327.099518 469.559113,355.906036
	C465.361237,367.362091 463.447388,379.247101 463.424042,391.737579
	C474.594818,391.737579 485.339355,391.737579 496.183228,391.737579
	C496.794617,386.813293 497.155396,382.019501 498.010437,377.315552
	C505.650269,335.285431 550.020325,309.972473 589.282166,325.178680
	C622.618103,338.089783 641.029846,375.970276 631.390320,411.267944
	C623.188293,441.301819 596.105713,464.042999 562.902710,463.437225
	C531.914307,462.871857 500.907440,463.316345 469.908691,463.316345
	C468.116760,463.316345 466.324829,463.316376 464.323181,463.316376
	C464.323181,475.062073 464.323181,486.274292 464.323181,497.709503
	C465.604431,497.781677 466.575043,497.883850 467.545654,497.884094
	C500.544312,497.892487 533.557068,498.439026 566.533813,497.588501
	C577.788818,497.298218 589.485229,494.939972 600.066589,491.045288
	C644.750427,474.598450 672.465759,427.400024 666.123474,379.508118
	C660.696899,338.530060 639.206848,309.066895 600.787354,293.339081
	C589.482483,288.711182 576.808472,287.427704 564.317444,284.507599
	C553.375061,196.586975 479.636414,129.609833 396.627258,125.178635
	C357.761993,123.103912 321.505035,132.056641 289.059204,153.900650
	C246.238480,182.729553 221.694168,223.798218 210.960754,273.731934
	C205.193970,274.620148 199.561264,275.206940 194.053101,276.379059
	C130.103867,289.987183 84.959007,345.322479 81.235291,410.290039
	C78.828560,452.280182 92.608376,488.993286 121.169891,519.762756
	C148.809464,549.538940 182.952087,565.284302 224.002045,565.018738
	C239.834076,564.916321 255.667313,565.002075 272.500000,565.002075
M1456.158569,415.499969
	C1456.158569,446.916595 1456.158569,478.333221 1456.158569,509.780884
	C1465.745483,509.780884 1474.675903,509.780884 1484.179199,509.780884
	C1484.179199,477.925018 1484.179199,446.287750 1484.179199,414.023773
	C1505.748901,437.825531 1535.501099,442.654968 1562.442383,426.562592
	C1586.904907,411.950745 1598.136841,389.276917 1597.979858,361.422668
	C1597.808716,331.064972 1584.960449,307.342865 1556.909790,293.724609
	C1534.656738,282.921143 1505.217896,284.301758 1485.707886,307.708801
	C1485.372925,308.110809 1484.890381,308.389832 1483.936279,309.165680
	C1483.936279,301.581665 1483.936279,294.789917 1483.936279,287.791840
	C1474.612915,287.791840 1465.543335,287.791840 1456.158691,287.791840
	C1456.158691,330.241608 1456.158691,372.370789 1456.158569,415.499969
M1621.994507,312.509369
	C1607.654419,332.888214 1603.785645,355.627136 1608.551025,379.577271
	C1618.238159,428.263916 1665.726074,448.938934 1708.316406,433.606201
	C1719.668091,429.519562 1729.370972,422.820557 1737.325195,413.309845
	C1730.446167,407.560181 1723.971680,402.148590 1717.398315,396.654358
	C1715.792969,398.071320 1714.451294,399.304810 1713.058350,400.477386
	C1690.371704,419.575775 1655.277832,414.858459 1640.536499,390.688354
	C1637.410889,385.563416 1635.292114,380.103333 1635.982178,373.528442
	C1638.088623,373.528442 1639.891724,373.528442 1641.694824,373.528442
	C1675.837402,373.528442 1709.980713,373.428772 1744.121948,373.645569
	C1748.762451,373.675018 1750.465698,372.269409 1750.190063,367.828247
	C1749.717896,360.218140 1750.270020,352.417694 1748.785767,345.019409
	C1742.831787,315.340393 1726.353638,294.062378 1696.208862,286.725098
	C1666.845093,279.577881 1641.611694,287.716980 1621.994507,312.509369
M1218.192139,398.301727
	C1212.037964,391.336182 1207.457031,383.728271 1207.743164,373.528229
	C1210.029785,373.528229 1211.833984,373.528229 1213.638184,373.528229
	C1247.636353,373.528229 1281.635742,373.394287 1315.631714,373.669800
	C1320.848022,373.712067 1322.577393,372.074677 1322.168945,367.245392
	C1321.429321,358.496490 1321.826416,349.488556 1319.847046,341.034058
	C1307.956177,290.244324 1258.747681,273.860382 1221.701660,290.319305
	C1193.256226,302.957184 1180.439575,327.075470 1178.982300,357.228088
	C1176.802246,402.337280 1204.148682,434.857910 1247.034790,438.237671
	C1271.462402,440.162689 1292.458374,432.072235 1309.344604,413.379150
	C1302.555176,407.711945 1295.973389,402.218140 1289.442139,396.766510
	C1265.968628,418.921539 1235.044434,415.145996 1218.192139,398.301727
M943.844238,334.365387
	C939.152283,347.131073 937.993408,360.269470 940.024658,373.659546
	C947.855347,425.281860 1000.428040,452.648285 1045.042114,430.730896
	C1080.328979,413.395691 1096.305298,369.569580 1081.215454,332.236816
	C1067.050171,297.191376 1031.491699,278.173828 995.625427,287.107819
	C970.394775,293.392517 953.654846,309.695984 943.844238,334.365387
M1332.483887,287.158508
	C1326.458496,287.158508 1320.433228,287.158508 1313.751831,287.158508
	C1315.245239,289.507904 1316.189453,291.056824 1317.194702,292.565125
	C1331.776733,314.446411 1346.300415,336.367310 1361.036011,358.144775
	C1362.963379,360.993256 1362.849243,362.803131 1360.980591,365.551575
	C1346.104736,387.431396 1331.395264,409.424408 1316.645508,431.389893
	C1315.771240,432.691925 1314.988403,434.055420 1313.884155,435.841125
	C1324.125000,435.841125 1333.606445,435.946686 1343.080444,435.730072
	C1344.541870,435.696655 1346.416992,434.518524 1347.332642,433.294983
	C1350.719116,428.769714 1353.785522,424.004700 1356.968628,419.327393
	C1364.344849,408.489410 1371.718994,397.649994 1379.307617,386.497223
	C1389.136353,400.819122 1398.931274,414.486237 1408.005371,428.616333
	C1411.554321,434.142609 1415.343628,436.556213 1421.972046,435.988647
	C1429.439087,435.349335 1437.002808,435.841492 1445.258667,435.841492
	C1429.028809,411.781097 1413.462158,388.574249 1397.698853,365.501648
	C1395.776978,362.688599 1395.775391,360.906525 1397.684570,358.102539
	C1411.263062,338.160431 1424.642822,318.082855 1438.070312,298.038147
	C1440.345215,294.642059 1442.546021,291.196350 1445.182861,287.158508
	C1435.544922,287.158508 1426.758911,287.345673 1417.987915,287.065430
	C1414.531372,286.954926 1412.628052,288.231171 1410.784912,290.970978
	C1400.480835,306.289520 1390.003662,321.491486 1379.314087,337.130371
	C1370.187378,323.681000 1360.751221,310.774780 1352.461792,297.169861
	C1347.799805,289.518524 1342.623169,285.183838 1332.483887,287.158508
M821.346985,392.128448
	C833.369873,420.726257 862.955322,442.426971 898.858948,438.029968
	C915.715637,435.965576 929.678040,428.491821 941.643250,416.164001
	C935.431946,409.419617 929.483276,402.960449 923.537598,396.504486
	C898.757874,418.095184 870.082581,411.269623 855.315186,394.908112
	C838.910645,376.732635 838.280945,348.154297 854.177490,329.482483
	C861.661194,320.692139 871.138611,314.925354 882.619995,313.290009
	C898.644714,311.007477 912.387207,316.371094 922.789490,326.106354
	C929.739014,320.042206 936.339539,314.282562 942.925598,308.535614
	C942.178101,307.438049 941.872009,306.835236 941.428894,306.360107
	C921.231750,284.705872 886.948792,278.127991 860.087341,290.739105
	C822.182434,308.535004 805.603821,351.298218 821.346985,392.128448
M1915.628540,287.155853
	C1912.909790,287.581757 1911.558105,286.641052 1911.980103,283.688324
	C1912.143311,282.545837 1912.006104,281.360443 1912.006104,280.194611
	C1912.006104,270.273865 1912.006104,260.353088 1912.006104,250.448181
	C1902.425293,250.448181 1893.515015,250.448181 1884.066406,250.448181
	C1884.066406,262.782013 1884.066406,274.834503 1884.066406,287.417664
	C1872.807861,287.417664 1862.085327,287.417664 1851.571411,287.417664
	C1851.571411,296.197540 1851.571411,304.426636 1851.571411,313.004608
	C1862.581299,313.004608 1873.180054,313.004608 1884.290161,313.004608
	C1884.290161,354.069275 1884.290161,394.768341 1884.290161,435.603516
	C1893.727295,435.603516 1902.640381,435.603516 1912.017578,435.603516
	C1912.017578,394.653839 1912.017578,353.941162 1912.017578,312.753693
	C1923.203857,312.753693 1933.934082,312.753693 1944.735107,312.753693
	C1944.735107,304.033417 1944.735107,295.794250 1944.735107,287.156067
	C1935.181030,287.156067 1925.892090,287.156067 1915.628540,287.155853
M1840.001831,295.558594
	C1840.001831,292.810730 1840.001831,290.062866 1840.001831,287.322113
	C1818.326172,286.163818 1800.739990,292.722076 1786.937134,310.784424
	C1786.937134,302.141724 1786.937134,294.798248 1786.937134,287.518005
	C1778.629395,287.518005 1770.903931,287.518005 1763.337891,287.518005
	C1763.337891,337.104340 1763.337891,386.333679 1763.337891,435.459717
	C1772.733765,435.459717 1781.785278,435.459717 1791.001831,435.459717
	C1791.001831,433.253510 1791.001953,431.425598 1791.001953,429.597656
	C1791.002075,404.441040 1790.902832,379.283936 1791.032959,354.127991
	C1791.140137,333.412048 1804.992310,316.916382 1825.200806,313.456268
	C1829.890137,312.653381 1834.748901,312.841339 1840.001831,312.546936
	C1840.001831,307.114990 1840.001831,301.829712 1840.001831,295.558594
M1106.501709,459.003632
	C1119.937256,459.003632 1133.372803,459.003632 1146.947144,459.003632
	C1146.947144,453.771881 1146.947144,449.032196 1146.947144,443.833038
	C1137.365112,443.833038 1127.994507,443.833038 1118.623779,443.833038
	C1118.378052,443.431519 1118.132202,443.029999 1117.886475,442.628479
	C1118.941772,441.920288 1120.079102,441.308014 1121.038696,440.487823
	C1125.716064,436.489746 1130.473755,432.572632 1134.964111,428.371613
	C1142.632690,421.197327 1147.861450,412.972870 1147.248169,401.738739
	C1146.341675,385.134827 1132.186890,373.257629 1114.712158,374.971710
	C1099.273315,376.486084 1087.406738,392.219482 1090.031738,407.957092
	C1094.916016,407.957092 1099.836182,407.957092 1105.199463,407.957092
	C1105.199463,406.125702 1105.053955,404.490326 1105.224121,402.888489
	C1106.103027,394.615173 1113.483887,389.381104 1121.691162,391.139404
	C1128.976929,392.700287 1133.641479,400.426117 1130.809448,407.754761
	C1129.390015,411.428131 1126.358887,414.744659 1123.388672,417.503296
	C1114.250488,425.990356 1105.100342,434.521698 1095.339355,442.259583
	C1089.439087,446.937012 1088.547852,452.205536 1089.973267,459.003632
	C1095.205811,459.003632 1100.354370,459.003632 1106.501709,459.003632
z"/>
<path fill="#F69E26" opacity="1.000000" stroke="none"
	d="
M272.000000,565.002075
	C255.667313,565.002075 239.834076,564.916321 224.002045,565.018738
	C182.952087,565.284302 148.809464,549.538940 121.169891,519.762756
	C92.608376,488.993286 78.828560,452.280182 81.235291,410.290039
	C84.959007,345.322479 130.103867,289.987183 194.053101,276.379059
	C199.561264,275.206940 205.193970,274.620148 210.960754,273.731934
	C221.694168,223.798218 246.238480,182.729553 289.059204,153.900650
	C321.505035,132.056641 357.761993,123.103912 396.627258,125.178635
	C479.636414,129.609833 553.375061,196.586975 564.317444,284.507599
	C576.808472,287.427704 589.482483,288.711182 600.787354,293.339081
	C639.206848,309.066895 660.696899,338.530060 666.123474,379.508118
	C672.465759,427.400024 644.750427,474.598450 600.066589,491.045288
	C589.485229,494.939972 577.788818,497.298218 566.533813,497.588501
	C533.557068,498.439026 500.544312,497.892487 467.545654,497.884094
	C466.575043,497.883850 465.604431,497.781677 464.323181,497.709503
	C464.323181,486.274292 464.323181,475.062073 464.323181,463.316376
	C466.324829,463.316376 468.116760,463.316345 469.908691,463.316345
	C500.907440,463.316345 531.914307,462.871857 562.902710,463.437225
	C596.105713,464.042999 623.188293,441.301819 631.390320,411.267944
	C641.029846,375.970276 622.618103,338.089783 589.282166,325.178680
	C550.020325,309.972473 505.650269,335.285431 498.010437,377.315552
	C497.155396,382.019501 496.794617,386.813293 496.183228,391.737579
	C485.339355,391.737579 474.594818,391.737579 463.424042,391.737579
	C463.447388,379.247101 465.361237,367.362091 469.559113,355.906036
	C480.114716,327.099518 499.126617,306.077881 527.531311,294.018188
	C530.914490,292.581787 531.439636,290.711182 530.939636,287.596802
	C526.152710,257.779755 514.257690,231.256165 494.189026,208.579941
	C469.924072,181.162262 439.640564,164.571472 403.275482,160.270981
	C364.812927,155.722427 329.812988,165.580246 299.364624,189.494080
	C266.125275,215.599960 246.818390,250.048355 241.932175,292.104462
	C236.843597,335.902496 248.178848,375.178741 275.888550,409.613220
	C276.192230,409.990631 276.402832,410.442902 276.917206,411.287811
	C268.908875,418.638428 260.869629,426.017456 252.390991,433.799774
	C237.464447,416.273956 226.516846,396.930176 218.812927,375.633026
	C211.094940,354.296967 207.624390,332.245453 207.470932,308.275757
	C199.396591,310.555359 191.701843,311.925476 184.652039,314.850220
	C143.292999,332.008698 119.513992,363.253052 115.015350,407.550659
	C110.374855,453.245117 128.108612,489.475616 166.548569,514.950989
	C183.212234,525.994568 202.034302,530.780884 221.926849,530.790955
	C368.254150,530.865112 514.581543,530.831055 660.908875,530.831055
	C663.036255,530.831055 665.163635,530.830994 667.589233,530.830994
	C667.589233,542.256104 667.589233,553.193176 667.589233,565.002075
	C535.958984,565.002075 404.229492,565.002075 272.000000,565.002075
z"/>
<path fill="#212A58" opacity="1.000000" stroke="none"
	d="
M1456.158691,414.999939
	C1456.158691,372.370789 1456.158691,330.241608 1456.158691,287.791840
	C1465.543335,287.791840 1474.612915,287.791840 1483.936279,287.791840
	C1483.936279,294.789917 1483.936279,301.581665 1483.936279,309.165680
	C1484.890381,308.389832 1485.372925,308.110809 1485.707886,307.708801
	C1505.217896,284.301758 1534.656738,282.921143 1556.909790,293.724609
	C1584.960449,307.342865 1597.808716,331.064972 1597.979858,361.422668
	C1598.136841,389.276917 1586.904907,411.950745 1562.442383,426.562592
	C1535.501099,442.654968 1505.748901,437.825531 1484.179199,414.023773
	C1484.179199,446.287750 1484.179199,477.925018 1484.179199,509.780884
	C1474.675903,509.780884 1465.745483,509.780884 1456.158569,509.780884
	C1456.158569,478.333221 1456.158569,446.916595 1456.158691,414.999939
M1483.937622,344.605316
	C1482.960815,351.303925 1481.041748,358.021484 1481.175903,364.697754
	C1481.667603,389.147430 1503.187866,409.695618 1526.553223,408.423248
	C1545.558960,407.388245 1559.552612,398.267120 1566.879761,380.629272
	C1574.470581,362.356506 1571.977173,344.876373 1559.008423,329.758270
	C1539.186890,306.651367 1498.175781,308.895111 1483.937622,344.605316
z"/>
<path fill="#1d2859" opacity="1.000000" stroke="none"
	d="
M1622.204346,312.219788
	C1641.611694,287.716980 1666.845093,279.577881 1696.208862,286.725098
	C1726.353638,294.062378 1742.831787,315.340393 1748.785767,345.019409
	C1750.270020,352.417694 1749.717896,360.218140 1750.190063,367.828247
	C1750.465698,372.269409 1748.762451,373.675018 1744.121948,373.645569
	C1709.980713,373.428772 1675.837402,373.528442 1641.694824,373.528442
	C1639.891724,373.528442 1638.088623,373.528442 1635.982178,373.528442
	C1635.292114,380.103333 1637.410889,385.563416 1640.536499,390.688354
	C1655.277832,414.858459 1690.371704,419.575775 1713.058350,400.477386
	C1714.451294,399.304810 1715.792969,398.071320 1717.398315,396.654358
	C1723.971680,402.148590 1730.446167,407.560181 1737.325195,413.309845
	C1729.370972,422.820557 1719.668091,429.519562 1708.316406,433.606201
	C1665.726074,448.938934 1618.238159,428.263916 1608.551025,379.577271
	C1603.785645,355.627136 1607.654419,332.888214 1622.204346,312.219788
M1672.500000,350.162262
	C1688.898071,350.162262 1705.296265,350.162262 1721.719604,350.162262
	C1720.557129,326.364868 1699.183105,308.338562 1675.173584,310.207306
	C1652.468018,311.974548 1634.008545,330.693787 1636.178223,350.162262
	C1647.922241,350.162262 1659.711060,350.162262 1672.500000,350.162262
z"/>
<path fill="#1d2859" opacity="1.000000" stroke="none"
	d="
M1218.440063,398.561462
	C1235.044434,415.145996 1265.968628,418.921539 1289.442139,396.766510
	C1295.973389,402.218140 1302.555176,407.711945 1309.344604,413.379150
	C1292.458374,432.072235 1271.462402,440.162689 1247.034790,438.237671
	C1204.148682,434.857910 1176.802246,402.337280 1178.982300,357.228088
	C1180.439575,327.075470 1193.256226,302.957184 1221.701660,290.319305
	C1258.747681,273.860382 1307.956177,290.244324 1319.847046,341.034058
	C1321.826416,349.488556 1321.429321,358.496490 1322.168945,367.245392
	C1322.577393,372.074677 1320.848022,373.712067 1315.631714,373.669800
	C1281.635742,373.394287 1247.636353,373.528229 1213.638184,373.528229
	C1211.833984,373.528229 1210.029785,373.528229 1207.743164,373.528229
	C1207.457031,383.728271 1212.037964,391.336182 1218.440063,398.561462
M1269.500000,350.162354
	C1277.569580,350.162354 1285.639282,350.162354 1293.737549,350.162354
	C1292.075684,325.824646 1270.472656,307.878082 1246.585938,310.267395
	C1223.773315,312.549255 1205.630493,331.224731 1208.216064,350.162354
	C1228.277588,350.162354 1248.388794,350.162354 1269.500000,350.162354
z"/>
<path fill="#1d2859" opacity="1.000000" stroke="none"
	d="
M943.946655,333.989319
	C953.654846,309.695984 970.394775,293.392517 995.625427,287.107819
	C1031.491699,278.173828 1067.050171,297.191376 1081.215454,332.236816
	C1096.305298,369.569580 1080.328979,413.395691 1045.042114,430.730896
	C1000.428040,452.648285 947.855347,425.281860 940.024658,373.659546
	C937.993408,360.269470 939.152283,347.131073 943.946655,333.989319
M1059.159424,354.555511
	C1057.648438,342.909729 1052.900024,332.754150 1044.079712,325.003662
	C1029.507446,312.199036 1012.665344,309.072266 994.865967,316.646576
	C975.974182,324.685699 966.782532,340.272247 966.326477,360.381866
	C965.865540,380.706482 974.565979,396.682739 993.211487,405.684601
	C1009.320007,413.461639 1025.497559,411.861206 1039.946289,401.357483
	C1055.386719,390.132996 1061.175537,374.255035 1059.159424,354.555511
z"/>
<path fill="#212A58" opacity="1.000000" stroke="none"
	d="
M1332.979614,287.158508
	C1342.623169,285.183838 1347.799805,289.518524 1352.461792,297.169861
	C1360.751221,310.774780 1370.187378,323.681000 1379.314087,337.130371
	C1390.003662,321.491486 1400.480835,306.289520 1410.784912,290.970978
	C1412.628052,288.231171 1414.531372,286.954926 1417.987915,287.065430
	C1426.758911,287.345673 1435.544922,287.158508 1445.182861,287.158508
	C1442.546021,291.196350 1440.345215,294.642059 1438.070312,298.038147
	C1424.642822,318.082855 1411.263062,338.160431 1397.684570,358.102539
	C1395.775391,360.906525 1395.776978,362.688599 1397.698853,365.501648
	C1413.462158,388.574249 1429.028809,411.781097 1445.258667,435.841492
	C1437.002808,435.841492 1429.439087,435.349335 1421.972046,435.988647
	C1415.343628,436.556213 1411.554321,434.142609 1408.005371,428.616333
	C1398.931274,414.486237 1389.136353,400.819122 1379.307617,386.497223
	C1371.718994,397.649994 1364.344849,408.489410 1356.968628,419.327393
	C1353.785522,424.004700 1350.719116,428.769714 1347.332642,433.294983
	C1346.416992,434.518524 1344.541870,435.696655 1343.080444,435.730072
	C1333.606445,435.946686 1324.125000,435.841125 1313.884155,435.841125
	C1314.988403,434.055420 1315.771240,432.691925 1316.645508,431.389893
	C1331.395264,409.424408 1346.104736,387.431396 1360.980591,365.551575
	C1362.849243,362.803131 1362.963379,360.993256 1361.036011,358.144775
	C1346.300415,336.367310 1331.776733,314.446411 1317.194702,292.565125
	C1316.189453,291.056824 1315.245239,289.507904 1313.751831,287.158508
	C1320.433228,287.158508 1326.458496,287.158508 1332.979614,287.158508
z"/>
<path fill="#1d2859" opacity="1.000000" stroke="none"
	d="
M821.201294,391.773468
	C805.603821,351.298218 822.182434,308.535004 860.087341,290.739105
	C886.948792,278.127991 921.231750,284.705872 941.428894,306.360107
	C941.872009,306.835236 942.178101,307.438049 942.925598,308.535614
	C936.339539,314.282562 929.739014,320.042206 922.789490,326.106354
	C912.387207,316.371094 898.644714,311.007477 882.619995,313.290009
	C871.138611,314.925354 861.661194,320.692139 854.177490,329.482483
	C838.280945,348.154297 838.910645,376.732635 855.315186,394.908112
	C870.082581,411.269623 898.757874,418.095184 923.537598,396.504486
	C929.483276,402.960449 935.431946,409.419617 941.643250,416.164001
	C929.678040,428.491821 915.715637,435.965576 898.858948,438.029968
	C862.955322,442.426971 833.369873,420.726257 821.201294,391.773468
z"/>
<path fill="#222B58" opacity="1.000000" stroke="none"
	d="
M1916.115845,287.155945
	C1925.892090,287.156067 1935.181030,287.156067 1944.735107,287.156067
	C1944.735107,295.794250 1944.735107,304.033417 1944.735107,312.753693
	C1933.934082,312.753693 1923.203857,312.753693 1912.017578,312.753693
	C1912.017578,353.941162 1912.017578,394.653839 1912.017578,435.603516
	C1902.640381,435.603516 1893.727295,435.603516 1884.290161,435.603516
	C1884.290161,394.768341 1884.290161,354.069275 1884.290161,313.004608
	C1873.180054,313.004608 1862.581299,313.004608 1851.571411,313.004608
	C1851.571411,304.426636 1851.571411,296.197540 1851.571411,287.417664
	C1862.085327,287.417664 1872.807861,287.417664 1884.066406,287.417664
	C1884.066406,274.834503 1884.066406,262.782013 1884.066406,250.448181
	C1893.515015,250.448181 1902.425293,250.448181 1912.006104,250.448181
	C1912.006104,260.353088 1912.006104,270.273865 1912.006104,280.194611
	C1912.006104,281.360443 1912.143311,282.545837 1911.980103,283.688324
	C1911.558105,286.641052 1912.909790,287.581757 1916.115845,287.155945
z"/>
<path fill="#202957" opacity="1.000000" stroke="none"
	d="
M1840.001831,296.051514
	C1840.001831,301.829712 1840.001831,307.114990 1840.001831,312.546936
	C1834.748901,312.841339 1829.890137,312.653381 1825.200806,313.456268
	C1804.992310,316.916382 1791.140137,333.412048 1791.032959,354.127991
	C1790.902832,379.283936 1791.002075,404.441040 1791.001953,429.597656
	C1791.001953,431.425598 1791.001831,433.253510 1791.001831,435.459717
	C1781.785278,435.459717 1772.733765,435.459717 1763.337891,435.459717
	C1763.337891,386.333679 1763.337891,337.104340 1763.337891,287.518005
	C1770.903931,287.518005 1778.629395,287.518005 1786.937134,287.518005
	C1786.937134,294.798248 1786.937134,302.141724 1786.937134,310.784424
	C1800.739990,292.722076 1818.326172,286.163818 1840.001831,287.322113
	C1840.001831,290.062866 1840.001831,292.810730 1840.001831,296.051514
z"/>
<path fill="#1d2859" opacity="1.000000" stroke="none"
	d="
M1106.002319,459.003632
	C1100.354370,459.003632 1095.205811,459.003632 1089.973267,459.003632
	C1088.547852,452.205536 1089.439087,446.937012 1095.339355,442.259583
	C1105.100342,434.521698 1114.250488,425.990356 1123.388672,417.503296
	C1126.358887,414.744659 1129.390015,411.428131 1130.809448,407.754761
	C1133.641479,400.426117 1128.976929,392.700287 1121.691162,391.139404
	C1113.483887,389.381104 1106.103027,394.615173 1105.224121,402.888489
	C1105.053955,404.490326 1105.199463,406.125702 1105.199463,407.957092
	C1099.836182,407.957092 1094.916016,407.957092 1090.031738,407.957092
	C1087.406738,392.219482 1099.273315,376.486084 1114.712158,374.971710
	C1132.186890,373.257629 1146.341675,385.134827 1147.248169,401.738739
	C1147.861450,412.972870 1142.632690,421.197327 1134.964111,428.371613
	C1130.473755,432.572632 1125.716064,436.489746 1121.038696,440.487823
	C1120.079102,441.308014 1118.941772,441.920288 1117.886475,442.628479
	C1118.132202,443.029999 1118.378052,443.431519 1118.623779,443.833038
	C1127.994507,443.833038 1137.365112,443.833038 1146.947144,443.833038
	C1146.947144,449.032196 1146.947144,453.771881 1146.947144,459.003632
	C1133.372803,459.003632 1119.937256,459.003632 1106.002319,459.003632
z"/>
<path fill="#FEFEFE" opacity="1.000000" stroke="none"
	d="
M1484.039795,344.226440
	C1498.175781,308.895111 1539.186890,306.651367 1559.008423,329.758270
	C1571.977173,344.876373 1574.470581,362.356506 1566.879761,380.629272
	C1559.552612,398.267120 1545.558960,407.388245 1526.553223,408.423248
	C1503.187866,409.695618 1481.667603,389.147430 1481.175903,364.697754
	C1481.041748,358.021484 1482.960815,351.303925 1484.039795,344.226440
z"/>
<path fill="#FEFEFE" opacity="1.000000" stroke="none"
	d="
M1672.000000,350.162262
	C1659.711060,350.162262 1647.922241,350.162262 1636.178223,350.162262
	C1634.008545,330.693787 1652.468018,311.974548 1675.173584,310.207306
	C1699.183105,308.338562 1720.557129,326.364868 1721.719604,350.162262
	C1705.296265,350.162262 1688.898071,350.162262 1672.000000,350.162262
z"/>
<path fill="#FEFEFE" opacity="1.000000" stroke="none"
	d="
M1269.000000,350.162354
	C1248.388794,350.162354 1228.277588,350.162354 1208.216064,350.162354
	C1205.630493,331.224731 1223.773315,312.549255 1246.585938,310.267395
	C1270.472656,307.878082 1292.075684,325.824646 1293.737549,350.162354
	C1285.639282,350.162354 1277.569580,350.162354 1269.000000,350.162354
z"/>
<path fill="#FEFEFE" opacity="1.000000" stroke="none"
	d="
M1059.195557,354.991119
	C1061.175537,374.255035 1055.386719,390.132996 1039.946289,401.357483
	C1025.497559,411.861206 1009.320007,413.461639 993.211487,405.684601
	C974.565979,396.682739 965.865540,380.706482 966.326477,360.381866
	C966.782532,340.272247 975.974182,324.685699 994.865967,316.646576
	C1012.665344,309.072266 1029.507446,312.199036 1044.079712,325.003662
	C1052.900024,332.754150 1057.648438,342.909729 1059.195557,354.991119
z"/>
</svg>