<svg xmlns="http://www.w3.org/2000/svg" viewBox="0 0 32 32">
  <!-- Orange cloud icon matching co2.expert logo -->
  <rect width="32" height="32" rx="7" fill="#F5A623"/>
  <!-- Cloud shape in white -->
  <path d="M22 22H10C7.8 22 6 20.2 6 18C6 16.1 7.3 14.5 9.1 14.1C9 13.7 9 13.4 9 13C9 10.8 10.8 9 13 9C14.3 9 15.5 9.6 16.3 10.6C17 10.2 17.7 10 18.5 10C20.4 10 22 11.6 22 13.5C22 13.7 22 13.9 21.9 14.1C23.2 14.5 24 15.6 24 17C24 19.2 23.2 22 22 22Z" fill="white" opacity="0.95"/>
  <!-- CO2 text hint: small "c" shape -->
  <text x="16" y="19" text-anchor="middle" font-family="Arial, sans-serif" font-size="7" font-weight="900" fill="#F5A623">co₂</text>
</svg>
